<?xml version="1.0" standalone="no"?>
<!DOCTYPE svg PUBLIC "-//W3C//DTD SVG 20010904//EN"
 "http://www.w3.org/TR/2001/REC-SVG-20010904/DTD/svg10.dtd">
<svg version="1.0" xmlns="http://www.w3.org/2000/svg"
 width="1000.000000pt" height="1000.000000pt" viewBox="0 0 1000.000000 1000.000000"
 preserveAspectRatio="xMidYMid meet">
<metadata>
Created by potrace 1.11, written by Peter Selinger 2001-2013
</metadata>
<g transform="translate(0.000000,1000.000000) scale(0.100000,-0.100000)"
fill="#000000" stroke="none">
<path d="M1530 5990 l0 -532 238 4 c218 4 242 6 295 27 82 32 136 77 170 141
26 50 29 62 25 136 -3 65 -9 90 -31 127 -34 57 -85 97 -143 112 l-45 11 57 35
c85 50 118 108 118 204 0 94 -30 156 -98 202 -76 51 -102 56 -353 60 l-233 5
0 -532z m466 374 c48 -36 66 -68 67 -121 1 -61 -25 -109 -73 -138 -30 -17 -56
-21 -177 -23 l-143 -4 0 157 0 156 149 -3 c133 -3 153 -5 177 -24z m-21 -425
c88 -24 135 -86 135 -177 0 -62 -29 -108 -90 -142 -42 -23 -57 -25 -197 -28
l-153 -4 0 181 0 181 133 0 c72 0 150 -5 172 -11z"/>
<path d="M5900 6270 l0 -100 -80 0 -80 0 0 -60 0 -60 80 0 79 0 3 -254 c3
-241 4 -256 24 -283 39 -52 80 -68 174 -68 116 0 130 9 130 85 l0 60 -26 -10
c-48 -18 -110 -12 -141 14 l-28 24 -3 216 -3 216 95 0 96 0 0 60 0 60 -95 0
-95 0 0 100 0 100 -65 0 -65 0 0 -100z"/>
<path d="M6490 6270 l0 -100 -80 0 -80 0 0 -60 0 -60 80 0 79 0 3 -254 c3
-241 4 -256 24 -283 39 -52 80 -68 174 -68 116 0 130 9 130 85 l0 60 -26 -10
c-48 -18 -110 -12 -141 14 l-28 24 -3 216 -3 216 95 0 96 0 0 60 0 60 -95 0
-95 0 0 100 0 100 -65 0 -65 0 0 -100z"/>
<path d="M2726 6180 c-63 -16 -155 -71 -192 -114 -19 -22 -47 -65 -62 -96 -24
-49 -27 -66 -27 -155 0 -87 3 -107 26 -155 40 -84 90 -135 172 -175 250 -123
529 34 545 306 10 169 -82 315 -235 372 -57 22 -173 30 -227 17z m175 -135
c52 -19 93 -55 122 -110 17 -31 22 -57 22 -120 0 -63 -5 -89 -22 -120 -29 -55
-70 -91 -122 -110 -116 -41 -239 5 -293 108 -31 60 -31 185 0 244 54 103 178
148 293 108z"/>
<path d="M4402 6175 c-29 -8 -66 -22 -83 -31 -50 -26 -119 -101 -147 -162 -24
-51 -27 -69 -27 -167 0 -105 2 -114 33 -177 63 -129 168 -191 327 -192 108 -1
173 19 234 71 l42 36 -47 48 -47 48 -31 -26 c-84 -71 -204 -72 -289 -2 -75 62
-103 167 -73 272 48 164 221 218 359 113 l33 -26 47 48 47 48 -27 26 c-75 72
-236 105 -351 73z"/>
<path d="M5176 6180 c-63 -16 -155 -71 -192 -114 -19 -22 -47 -65 -62 -96 -24
-49 -27 -66 -27 -155 0 -87 3 -107 26 -155 40 -84 90 -135 172 -175 250 -123
529 34 545 306 10 169 -82 315 -235 372 -57 22 -173 30 -227 17z m175 -135
c52 -19 93 -55 122 -110 17 -31 22 -57 22 -120 0 -63 -5 -89 -22 -120 -29 -55
-70 -91 -122 -110 -116 -41 -239 5 -293 108 -31 60 -31 185 0 244 54 103 178
148 293 108z"/>
<path d="M3313 6157 c3 -7 69 -167 147 -356 l142 -342 -32 -85 c-24 -60 -43
-94 -68 -116 -34 -29 -39 -30 -99 -25 l-63 5 -5 -37 c-13 -85 -15 -80 24 -91
122 -34 236 10 287 112 22 43 374 933 374 945 0 2 -32 3 -72 1 l-71 -3 -97
-268 c-54 -147 -100 -270 -103 -273 -5 -5 -21 37 -145 361 l-68 180 -78 3
c-63 2 -77 0 -73 -11z"/>
<path d="M1390 4175 l0 -705 3475 0 3475 0 0 705 0 705 -3475 0 -3475 0 0
-705z m3560 361 l0 -254 37 34 c59 54 132 77 233 72 58 -3 100 -11 132 -25 70
-32 141 -103 174 -176 26 -56 29 -72 29 -172 0 -98 -3 -116 -27 -167 -35 -75
-98 -142 -166 -175 -44 -21 -73 -28 -141 -31 -104 -5 -178 19 -235 74 l-36 35
0 -46 0 -45 -70 0 -70 0 0 565 0 565 70 0 70 0 0 -254z m2790 -103 l0 -358
148 148 147 147 100 -1 100 0 -163 -157 c-89 -86 -162 -161 -162 -165 0 -7
152 -174 314 -344 l40 -43 -101 0 -100 0 -159 177 -159 177 -3 -177 -2 -177
-70 0 -70 0 0 565 0 565 70 0 70 0 0 -357z m-5540 217 l0 -70 -265 0 -265 0 0
-165 0 -165 245 0 245 0 0 -70 0 -70 -245 0 -245 0 0 -225 0 -225 -75 0 -75 0
0 530 0 530 340 0 340 0 0 -70z m598 -276 c63 -21 116 -63 145 -117 21 -40 22
-55 25 -319 l3 -278 -59 0 c-65 0 -72 6 -72 61 l0 29 -41 -39 c-56 -55 -119
-75 -224 -69 -66 3 -91 9 -128 31 -132 77 -137 275 -9 359 69 46 128 61 265
66 l127 4 0 38 c0 76 -66 124 -173 123 -54 0 -79 -6 -130 -31 l-62 -31 -42 41
c-23 23 -40 45 -37 50 9 14 98 62 149 80 65 23 196 23 263 2z m849 1 c59 -17
146 -73 151 -95 1 -8 -21 -35 -48 -59 l-51 -43 -22 20 c-67 61 -178 75 -257
31 -67 -37 -104 -103 -109 -196 -6 -129 49 -218 156 -249 81 -24 149 -9 206
44 l27 26 50 -49 c28 -27 50 -53 50 -57 0 -17 -99 -78 -151 -92 -205 -58 -400
31 -470 212 -30 80 -30 214 0 294 37 96 129 184 224 214 58 18 183 17 244 -1z
m756 -5 c29 -11 72 -36 95 -55 69 -59 122 -193 122 -306 l0 -39 -286 0 -287 0
6 -36 c16 -95 117 -168 231 -168 67 1 104 16 161 65 l35 31 50 -37 c27 -20 50
-40 50 -45 0 -17 -85 -84 -139 -109 -50 -23 -68 -26 -171 -26 -135 0 -179 15
-258 89 -92 86 -134 242 -103 381 15 66 74 160 126 199 99 76 253 99 368 56z
m1863 -17 c78 -40 155 -124 185 -201 16 -42 22 -78 22 -137 0 -59 -6 -95 -22
-137 -29 -76 -107 -160 -185 -201 -57 -30 -68 -32 -166 -32 -95 0 -111 3 -168
29 -81 37 -162 122 -193 203 -30 80 -30 196 0 275 24 62 92 144 147 179 78 48
124 59 224 56 83 -3 103 -7 156 -34z m920 0 c78 -40 155 -124 185 -201 16 -42
22 -78 22 -137 0 -59 -6 -95 -22 -137 -29 -76 -107 -160 -185 -201 -57 -30
-68 -32 -166 -32 -95 0 -111 3 -168 29 -81 37 -162 122 -193 203 -30 80 -30
196 0 275 24 62 92 144 147 179 78 48 124 59 224 56 83 -3 103 -7 156 -34z"/>
<path d="M5125 4251 c-114 -29 -170 -107 -170 -236 0 -111 35 -173 120 -218
56 -29 155 -28 212 1 164 85 166 349 3 432 -43 22 -122 32 -165 21z"/>
<path d="M2695 3994 c-85 -10 -138 -28 -171 -56 -29 -25 -34 -37 -34 -73 0
-59 27 -91 91 -104 139 -30 249 51 249 186 l0 53 -52 -1 c-29 -1 -66 -4 -83
-5z"/>
<path d="M4215 4261 c-69 -17 -134 -69 -154 -124 -23 -59 -29 -57 198 -57
l208 0 -7 38 c-14 77 -61 124 -140 141 -56 12 -62 12 -105 2z"/>
<path d="M6029 4246 c-104 -28 -159 -108 -159 -231 0 -129 61 -211 176 -235
154 -33 277 72 277 235 0 124 -62 209 -173 234 -55 13 -64 13 -121 -3z"/>
<path d="M6949 4246 c-104 -28 -159 -108 -159 -231 0 -129 61 -211 176 -235
154 -33 277 72 277 235 0 124 -62 209 -173 234 -55 13 -64 13 -121 -3z"/>
<path d="M8461 3836 c-90 -50 -50 -186 54 -186 14 0 39 13 57 29 86 77 -10
213 -111 157z"/>
</g>
</svg>
